<?xml version="1.0" encoding="UTF-8"?>
<svg viewBox="-850 -1350 800 800" xmlns="http://www.w3.org/2000/svg">
  <rect x="-850" y="-1350" width="800" height="800" fill="white"/>
  <g transform="matrix(1.706546, 0, 0, 1.706546, -17.339253, 351.452492)" style="">
    <g id="logo" transform="matrix(-4.021422, 0, 0, 4.021422, -253.529968, -762.623779)" style="">
      <g id="gear" mask="url(#holes)">
        <circle r="43" fill="none" stroke-width="9" style="stroke: rgb(0, 0, 0);"/>
        <g id="cogs">
          <polygon id="cog" stroke-width="3" stroke-linejoin="round" points="46,3 51,0 46,-3" style="stroke: rgb(0, 0, 0);"/>
          <polygon stroke-width="3" stroke-linejoin="round" points="46,3 51,0 46,-3" transform="matrix(0.9807852804032304, 0.19509032201612825, -0.19509032201612825, 0.9807852804032304, 0, 0)" style="stroke: rgb(0, 0, 0);"/>
          <polygon stroke-width="3" stroke-linejoin="round" points="46,3 51,0 46,-3" transform="matrix(0.9238795325112867, 0.3826834323650898, -0.3826834323650898, 0.9238795325112867, 0, 0)" style="stroke: rgb(0, 0, 0);"/>
          <polygon stroke-width="3" stroke-linejoin="round" points="46,3 51,0 46,-3" transform="matrix(0.8314696123025452, 0.5555702330196022, -0.5555702330196022, 0.8314696123025452, 0, 0)" style="stroke: rgb(0, 0, 0);"/>
          <polygon stroke-width="3" stroke-linejoin="round" points="46,3 51,0 46,-3" transform="matrix(0.7071067811865476, 0.7071067811865475, -0.7071067811865475, 0.7071067811865476, 0, 0)" style="stroke: rgb(0, 0, 0);"/>
          <polygon stroke-width="3" stroke-linejoin="round" points="46,3 51,0 46,-3" transform="matrix(0.5555702330196023, 0.8314696123025452, -0.8314696123025452, 0.5555702330196023, 0, 0)" style="stroke: rgb(0, 0, 0);"/>
          <polygon stroke-width="3" stroke-linejoin="round" points="46,3 51,0 46,-3" transform="matrix(0.38268343236508984, 0.9238795325112867, -0.9238795325112867, 0.38268343236508984, 0, 0)" style="stroke: rgb(0, 0, 0);"/>
          <polygon stroke-width="3" stroke-linejoin="round" points="46,3 51,0 46,-3" transform="matrix(0.19509032201612833, 0.9807852804032304, -0.9807852804032304, 0.19509032201612833, 0, 0)" style="stroke: rgb(0, 0, 0);"/>
          <polygon stroke-width="3" stroke-linejoin="round" points="46,3 51,0 46,-3" transform="matrix(6.123233995736766e-17, 1, -1, 6.123233995736766e-17, 0, 0)" style="stroke: rgb(0, 0, 0);"/>
          <polygon stroke-width="3" stroke-linejoin="round" points="46,3 51,0 46,-3" transform="matrix(-0.1950903220161282, 0.9807852804032304, -0.9807852804032304, -0.1950903220161282, 0, 0)" style="stroke: rgb(0, 0, 0);"/>
          <polygon stroke-width="3" stroke-linejoin="round" points="46,3 51,0 46,-3" transform="matrix(-0.3826834323650897, 0.9238795325112867, -0.9238795325112867, -0.3826834323650897, 0, 0)" style="stroke: rgb(0, 0, 0);"/>
          <polygon stroke-width="3" stroke-linejoin="round" points="46,3 51,0 46,-3" transform="matrix(-0.5555702330196023, 0.8314696123025451, -0.8314696123025451, -0.5555702330196023, 0, 0)" style="stroke: rgb(0, 0, 0);"/>
          <polygon stroke-width="3" stroke-linejoin="round" points="46,3 51,0 46,-3" transform="matrix(-0.7071067811865475, 0.7071067811865476, -0.7071067811865476, -0.7071067811865475, 0, 0)" style="stroke: rgb(0, 0, 0);"/>
          <polygon stroke-width="3" stroke-linejoin="round" points="46,3 51,0 46,-3" transform="matrix(-0.8314696123025453, 0.5555702330196022, -0.5555702330196022, -0.8314696123025453, 0, 0)" style="stroke: rgb(0, 0, 0);"/>
          <polygon stroke-width="3" stroke-linejoin="round" points="46,3 51,0 46,-3" transform="matrix(-0.9238795325112867, 0.3826834323650899, -0.3826834323650899, -0.9238795325112867, 0, 0)" style="stroke: rgb(0, 0, 0);"/>
          <polygon stroke-width="3" stroke-linejoin="round" points="46,3 51,0 46,-3" transform="matrix(-0.9807852804032304, 0.19509032201612816, -0.19509032201612816, -0.9807852804032304, 0, 0)" style="stroke: rgb(0, 0, 0);"/>
          <polygon stroke-width="3" stroke-linejoin="round" points="46,3 51,0 46,-3" transform="matrix(-1, 1.2246467991473532e-16, -1.2246467991473532e-16, -1, 0, 0)" style="stroke: rgb(0, 0, 0);"/>
          <polygon stroke-width="3" stroke-linejoin="round" points="46,3 51,0 46,-3" transform="matrix(-0.9807852804032304, -0.19509032201612836, 0.19509032201612836, -0.9807852804032304, 0, 0)" style="stroke: rgb(0, 0, 0);"/>
          <polygon stroke-width="3" stroke-linejoin="round" points="46,3 51,0 46,-3" transform="matrix(-0.9238795325112868, -0.38268343236508967, 0.38268343236508967, -0.9238795325112868, 0, 0)" style="stroke: rgb(0, 0, 0);"/>
          <polygon stroke-width="3" stroke-linejoin="round" points="46,3 51,0 46,-3" transform="matrix(-0.8314696123025452, -0.5555702330196023, 0.5555702330196023, -0.8314696123025452, 0, 0)" style="stroke: rgb(0, 0, 0);"/>
          <polygon stroke-width="3" stroke-linejoin="round" points="46,3 51,0 46,-3" transform="matrix(-0.7071067811865477, -0.7071067811865475, 0.7071067811865475, -0.7071067811865477, 0, 0)" style="stroke: rgb(0, 0, 0);"/>
          <polygon stroke-width="3" stroke-linejoin="round" points="46,3 51,0 46,-3" transform="matrix(-0.5555702330196022, -0.8314696123025452, 0.8314696123025452, -0.5555702330196022, 0, 0)" style="stroke: rgb(0, 0, 0);"/>
          <polygon stroke-width="3" stroke-linejoin="round" points="46,3 51,0 46,-3" transform="matrix(-0.3826834323650895, -0.9238795325112868, 0.9238795325112868, -0.3826834323650895, 0, 0)" style="stroke: rgb(0, 0, 0);"/>
          <polygon stroke-width="3" stroke-linejoin="round" points="46,3 51,0 46,-3" transform="matrix(-0.19509032201612866, -0.9807852804032303, 0.9807852804032303, -0.19509032201612866, 0, 0)" style="stroke: rgb(0, 0, 0);"/>
          <polygon stroke-width="3" stroke-linejoin="round" points="46,3 51,0 46,-3" transform="matrix(-1.8369701987210297e-16, -1, 1, -1.8369701987210297e-16, 0, 0)" style="stroke: rgb(0, 0, 0);"/>
          <polygon stroke-width="3" stroke-linejoin="round" points="46,3 51,0 46,-3" transform="matrix(0.1950903220161283, -0.9807852804032304, 0.9807852804032304, 0.1950903220161283, 0, 0)" style="stroke: rgb(0, 0, 0);"/>
          <polygon stroke-width="3" stroke-linejoin="round" points="46,3 51,0 46,-3" transform="matrix(0.38268343236509, -0.9238795325112866, 0.9238795325112866, 0.38268343236509, 0, 0)" style="stroke: rgb(0, 0, 0);"/>
          <polygon stroke-width="3" stroke-linejoin="round" points="46,3 51,0 46,-3" transform="matrix(0.5555702330196018, -0.8314696123025455, 0.8314696123025455, 0.5555702330196018, 0, 0)" style="stroke: rgb(0, 0, 0);"/>
          <polygon stroke-width="3" stroke-linejoin="round" points="46,3 51,0 46,-3" transform="matrix(0.7071067811865474, -0.7071067811865477, 0.7071067811865477, 0.7071067811865474, 0, 0)" style="stroke: rgb(0, 0, 0);"/>
          <polygon stroke-width="3" stroke-linejoin="round" points="46,3 51,0 46,-3" transform="matrix(0.8314696123025452, -0.5555702330196022, 0.5555702330196022, 0.8314696123025452, 0, 0)" style="stroke: rgb(0, 0, 0);"/>
          <polygon stroke-width="3" stroke-linejoin="round" points="46,3 51,0 46,-3" transform="matrix(0.9238795325112868, -0.38268343236508956, 0.38268343236508956, 0.9238795325112868, 0, 0)" style="stroke: rgb(0, 0, 0);"/>
          <polygon stroke-width="3" stroke-linejoin="round" points="46,3 51,0 46,-3" transform="matrix(0.9807852804032303, -0.19509032201612872, 0.19509032201612872, 0.9807852804032303, 0, 0)" style="stroke: rgb(0, 0, 0);"/>
        </g>
        <g id="mounts">
          <polygon id="mount" stroke-width="6" stroke-linejoin="round" points="-7,-42 0,-35 7,-42" style="stroke: rgb(0, 0, 0);"/>
          <polygon stroke-width="6" stroke-linejoin="round" points="-7,-42 0,-35 7,-42" transform="matrix(0.30901699437494745, 0.9510565162951535, -0.9510565162951535, 0.30901699437494745, 0, 0)" style="stroke: rgb(0, 0, 0);"/>
          <polygon stroke-width="6" stroke-linejoin="round" points="-7,-42 0,-35 7,-42" transform="matrix(-0.8090169943749473, 0.5877852522924732, -0.5877852522924732, -0.8090169943749473, 0, 0)" style="stroke: rgb(0, 0, 0);"/>
          <polygon stroke-width="6" stroke-linejoin="round" points="-7,-42 0,-35 7,-42" transform="matrix(-0.8090169943749476, -0.587785252292473, 0.587785252292473, -0.8090169943749476, 0, 0)" style="stroke: rgb(0, 0, 0);"/>
          <polygon stroke-width="6" stroke-linejoin="round" points="-7,-42 0,-35 7,-42" transform="matrix(0.30901699437494723, -0.9510565162951536, 0.9510565162951536, 0.30901699437494723, 0, 0)" style="stroke: rgb(0, 0, 0);"/>
        </g>
      </g>
      <mask id="holes">
        <rect x="-60" y="-60" width="120" height="120" fill="white"/>
        <circle id="hole" cy="-40" r="3"/>
        <circle cy="-40" r="3" transform="matrix(0.30901699437494745, 0.9510565162951535, -0.9510565162951535, 0.30901699437494745, 0, 0)"/>
        <circle cy="-40" r="3" transform="matrix(-0.8090169943749473, 0.5877852522924732, -0.5877852522924732, -0.8090169943749473, 0, 0)"/>
        <circle cy="-40" r="3" transform="matrix(-0.8090169943749476, -0.587785252292473, 0.587785252292473, -0.8090169943749476, 0, 0)"/>
        <circle cy="-40" r="3" transform="matrix(0.30901699437494723, -0.9510565162951536, 0.9510565162951536, 0.30901699437494723, 0, 0)"/>
      </mask>
    </g>
    <path style="stroke: rgb(0, 0, 0); fill: none; stroke-width: 21px;" d="M -274.144 -722.211 L -294.575 -681.541 L -254.244 -681.272 L -241.985 -705.675 M -282.184 -726.346 C -261.753 -767.016 -257.534 -795.553 -281.448 -828.321 M -233.946 -701.54 C -213.515 -742.211 -193.217 -762.48 -152.886 -762.211 M -291.513 -730.704 L -224.279 -697.627 M -252.785 -905.7 L -289.56 -832.492 L -144.846 -758.077 L -119.693 -809.801" transform="matrix(0.999984, 0.005642, -0.005643, 0.999984, -4.480551, 1.156109)"/>
  </g>
</svg>